<?xml version="1.0" encoding="iso-8859-1"?>
<!-- Generator: Adobe Illustrator 19.0.0, SVG Export Plug-In . SVG Version: 6.00 Build 0)  -->
<svg fill="#fff"   version="1.1" id="Capa_1" xmlns="http://www.w3.org/2000/svg" xmlns:xlink="http://www.w3.org/1999/xlink" x="0px" y="0px"
	 viewBox="0 0 512.001 512.001" style="enable-background:new 0 0 512.001 512.001;" xml:space="preserve">
<g>
	<g>
		<path d="M386.629,294.995c-6.54,0-12.643,1.912-17.778,5.207c-1.26-17.06-15.544-30.556-32.921-30.556
			c-8.787,0-16.784,3.452-22.704,9.069c-5.84-9.321-16.206-15.532-27.994-15.532c-6.502,0-12.572,1.89-17.687,5.149V206.44
			c-0.013-18.188-14.82-32.985-33.009-32.985c-8.815,0-17.103,3.434-23.34,9.67c-6.235,6.236-9.669,14.525-9.669,23.339v100.99
			c-4.693-5.847-11.061-10.098-18.416-12.203c-9.397-2.692-19.283-1.561-27.836,3.184c-8.55,4.744-14.742,12.532-17.433,21.931
			s-1.561,19.281,3.181,27.826c5.322,9.6,6.49,32.136,6.49,40.049c0.006,1.24,0.272,30.717,11.229,60.663
			c15.103,41.278,43.064,63.097,80.862,63.097h75.504c31.58,0,59.788-15.582,79.428-43.876c2.413-3.476,1.551-8.25-1.925-10.663
			c-3.476-2.413-8.25-1.55-10.663,1.925c-11.809,17.011-32.99,37.291-66.84,37.291h-75.504c-31.129,0-53.452-17.733-66.35-52.708
			c-10.125-27.455-10.415-55.528-10.418-55.762c0.002-3.3-0.217-32.666-8.413-47.45c-2.757-4.968-3.414-10.713-1.85-16.175
			c1.565-5.464,5.165-9.993,10.137-12.751c4.973-2.759,10.72-3.415,16.183-1.852c5.463,1.564,9.988,5.164,12.745,10.138
			c7.563,13.632,9.525,21.358,9.89,23.025v44.957c0,4.231,3.43,7.661,7.661,7.661s7.661-3.43,7.661-7.661V206.464
			c0-4.721,1.84-9.162,5.181-12.505c3.341-3.341,7.783-5.182,12.504-5.182c9.745,0,17.679,7.928,17.686,17.667v132.439
			c0,4.231,3.43,7.661,7.661,7.661c4.231,0,7.661-3.43,7.661-7.661v-42.692c0-9.753,7.935-17.687,17.688-17.687
			s17.687,7.934,17.687,17.687v6.464v27.974c0,4.231,3.43,7.661,7.661,7.661c4.231,0,7.661-3.43,7.661-7.661v-27.974
			c0-9.753,7.935-17.688,17.688-17.688s17.688,7.935,17.688,17.688v25.348v13.237c0,4.231,3.43,7.661,7.661,7.661
			s7.661-3.43,7.661-7.661v-13.237c0-9.753,7.935-17.687,17.688-17.687s17.687,7.934,17.687,17.687v58.465
			c0,17.76-3.834,35.94-11.087,52.574c-1.691,3.879,0.083,8.394,3.961,10.086c3.88,1.691,8.394-0.082,10.086-3.961
			c8.088-18.551,12.364-38.848,12.364-58.698v-58.465C419.638,309.803,404.83,294.995,386.629,294.995z"/>
	</g>
</g>
<g>
	<g>
		<path d="M183.708,205.331H75.743c-24.466,0-44.37-19.904-44.37-44.37V59.693c-0.001-24.466,19.903-44.37,44.37-44.37h41.055
			c4.231,0,7.661-3.43,7.661-7.661S121.029,0,116.798,0H75.743C42.827,0,16.049,26.778,16.049,59.693v101.268
			c0,32.915,26.778,59.693,59.693,59.693h107.965c4.232,0,7.662-3.43,7.662-7.661C191.369,208.761,187.939,205.331,183.708,205.331z
			"/>
	</g>
</g>
<g>
	<g>
		<path d="M436.259,0H142.337c-4.231,0-7.661,3.43-7.661,7.661s3.43,7.661,7.661,7.661h293.923c24.466,0,44.37,19.904,44.37,44.37
			v101.268c0,24.466-19.904,44.37-44.37,44.37h-146.83c-4.231,0-7.661,3.43-7.661,7.661c0,4.231,3.43,7.661,7.661,7.661h146.83
			c32.915,0,59.693-26.778,59.693-59.693V59.693C495.952,26.778,469.174,0,436.259,0z"/>
	</g>
</g>
<g>
	<g>
		<path d="M162.026,55.634c-4.938,0-9.726,1.796-9.726,5.985v39.055H118.63V61.619c0-4.19-4.938-5.985-9.726-5.985
			c-4.938,0-9.726,1.796-9.726,5.985v97.265c0,4.04,4.789,6.135,9.726,6.135c4.789,0,9.726-2.095,9.726-6.135v-42.946h33.669v42.946
			c0,4.04,4.789,6.135,9.727,6.135c4.789,0,9.726-2.095,9.726-6.135V61.619C171.752,57.429,166.814,55.634,162.026,55.634z"/>
	</g>
</g>
<g>
	<g>
		<path d="M251.51,147.961h-42.347v-30.077h22.745c4.19,0,6.135-4.04,6.135-7.482c0-4.04-2.244-7.781-6.135-7.781h-22.745V72.693
			h42.347c3.891,0,6.135-4.04,6.135-8.679c0-4.04-1.945-8.38-6.135-8.38H198.24c-4.339,0-8.53,2.095-8.53,6.135v97.114
			c0,4.04,4.19,6.135,8.53,6.135h53.271c4.19,0,6.135-4.339,6.135-8.38C257.646,152.001,255.401,147.961,251.51,147.961z"/>
	</g>
</g>
<g>
	<g>
		<path d="M324.987,147.96h-36.511v-86.34c-0.002-4.189-4.94-5.985-9.728-5.985c-4.938,0-9.726,1.796-9.726,5.985v97.265
			c0,4.04,4.19,6.135,8.53,6.135h47.436c3.891,0,5.836-4.339,5.836-8.53C330.823,152.15,328.878,147.96,324.987,147.96z"/>
	</g>
</g>
<g>
	<g>
		<path d="M378.856,55.634h-30.077c-4.49,0-7.333,2.843-7.333,5.985v97.265c0,4.04,4.789,6.135,9.726,6.135
			c4.789,0,9.727-2.095,9.727-6.135v-34.716h16.759c19.752,0,35.165-9.428,35.165-33.968v-0.898
			C412.824,64.763,397.86,55.634,378.856,55.634z M393.371,91.697c0,11.672-5.985,17.209-15.712,17.209H360.9V72.693h16.759
			c9.726,0,15.712,5.537,15.712,17.209V91.697z"/>
	</g>
</g>
<g>
</g>
<g>
</g>
<g>
</g>
<g>
</g>
<g>
</g>
<g>
</g>
<g>
</g>
<g>
</g>
<g>
</g>
<g>
</g>
<g>
</g>
<g>
</g>
<g>
</g>
<g>
</g>
<g>
</g>
</svg>
