<?xml version="1.0" encoding="iso-8859-1"?>
<!-- Generator: Adobe Illustrator 19.0.0, SVG Export Plug-In . SVG Version: 6.00 Build 0)  -->
<svg fill="#fff"  version="1.1" id="Capa_1" xmlns="http://www.w3.org/2000/svg" xmlns:xlink="http://www.w3.org/1999/xlink" x="0px" y="0px"
	 viewBox="0 0 512.001 512.001" style="enable-background:new 0 0 512.001 512.001;" xml:space="preserve">
<g>
	<g>
		<path d="M503.408,205.323c-10.576,0-10.857,0.31-11.268-0.829c-6.001-17.027-22.084-28.106-39.72-28.106h-73.902
			c-4.184,0-7.856,3.14-8.141,7.315c-0.315,4.592,3.332,8.422,7.85,8.422h74.195c15.517,0,27.876,13.366,26.26,29.103
			c-4.983,48.376-5.277,51.24-5.277,51.24v0.01c-2.822,27.498-25.809,48.229-53.443,48.229h-70.576
			c-27.645,0-50.631-20.731-53.454-48.229l-4.774-46.372c-1.867-18.161,12.401-33.982,30.677-33.982h22.526
			c7.164,0,10.891-8.39,5.853-13.429c-3.949-3.949-7.976-1.641-28.379-2.308c-28.169,0-39.983,21.99-42.542,27.624
			c-0.367,0.808-1.165,1.311-2.046,1.311c-43.059-0.532-43.446,1.229-44.557-1.385c-15.443-35.839-44.935-27.55-173.108-27.55
			c-17.636,0-33.719,11.079-39.72,28.106c-0.178,0.493-0.629,0.829-1.154,0.829H8.592c-4.745,0-8.592,3.847-8.592,8.592v1.763
			c0,4.74,3.842,8.582,8.582,8.582h8.12c2.149,0,0.704,0.66,6.242,49.824c5.183,50.473,47.217,60.131,65.664,61.952
			c4.618,0.455,8.625-3.152,8.625-7.793c0-4.064-3.104-7.437-7.152-7.801c-14.737-1.324-47.451-8.666-51.484-47.962l-4.973-48.25
			c0.021-1.689-2.948-13.083,6.358-23.396c5.078-5.613,12.034-8.708,19.598-8.708h130.586c13.943,0,26.291,9.39,29.837,23.102
			c1.878,7.134,1.269,6.693-3.934,57.251c-2.822,27.498-25.809,48.229-53.454,48.229h-39.715c-4.326,0-7.832,3.506-7.832,7.832
			v0.072c0,4.326,3.506,7.832,7.832,7.832h39.715c35.744,0,65.456-26.805,69.107-62.361c4.702-45.59,4.009-43.287,5.529-43.287
			h37.496c0.605,0,1.112,0.452,1.175,1.054c0.261,2.532,1.173,11.315,4.355,42.233c3.651,35.555,33.363,62.361,69.107,62.361h70.575
			c35.734,0,65.445-26.805,69.096-62.361c5.539-49.168,4.095-49.824,6.242-49.824h8.11c4.745,0,8.592-3.847,8.592-8.592v-1.752
			C512,209.17,508.153,205.323,503.408,205.323z"/>
	</g>
</g>
<g>
</g>
<g>
</g>
<g>
</g>
<g>
</g>
<g>
</g>
<g>
</g>
<g>
</g>
<g>
</g>
<g>
</g>
<g>
</g>
<g>
</g>
<g>
</g>
<g>
</g>
<g>
</g>
<g>
</g>
</svg>
