<svg xmlns="http://www.w3.org/2000/svg" viewBox="0 0 251.3 60.56"><defs><style>.cls-1{fill:#fff;}</style></defs><g id="Camada_2" data-name="Camada 2"><g id="Camada_1-2" data-name="Camada 1"><path class="cls-1" d="M200.78,59.07a2.11,2.11,0,0,0-.63-1.34,8.9,8.9,0,0,1-.94-1.44c-.25-.47-.37-1-.59-1.47-.54-1.19-1.19-3.13-1.65-4.35-1-2.62-2.22-5.11-3.28-7.68-.38-.91-.86-1.78-1.24-2.69-1-2.45-2-4.91-3-7.35-.48-1.17-1-2.32-1.52-3.49-.88-2.07-1.73-4.16-2.61-6.24-.54-1.3-1.12-2.58-1.66-3.89-.73-1.75-1.43-3.52-2.15-5.28-.63-1.53-1.28-3.06-1.9-4.59C178.74,7.11,177.87,5,177,2.8A6.08,6.08,0,0,1,176.3.93c0-.8-.51-.72-.85-.59a6.29,6.29,0,0,1-2.06.21c-.72.06-1.43.21-2.15.22-3.34,0-6.68,0-10,0a1.9,1.9,0,0,1-.87-.06c-.52-.3-.94-.07-1.43,0s-.54.08-.29.59a2.07,2.07,0,0,1,0,1.43c-.44,1.3-1,2.57-1.49,3.85-1.07,2.64-2.27,5.23-3.28,7.91-.78,2.07-1.72,4.09-2.61,6.12-.64,1.46-1.34,2.88-2,4.33-1,2.29-2,4.61-2.94,6.9-.43,1-.92,2-1.34,3-.92,2.14-1.8,4.29-2.71,6.43-.43,1-.92,2-1.34,3-.9,2.11-1.72,4.25-2.67,6.34-.61,1.34-1.07,2.75-1.77,4.07a25.31,25.31,0,0,0-1.57,3.8,1.43,1.43,0,0,1-.33.6h0a9.8,9.8,0,0,0,.38,1.25l.05.17,0,0,.54,0,.93-.08h0c3.66-.08,7.32-.16,11-.22,1.33,0,2.65,0,4,0l.06-1.3.05-1c.17-.53.39-1.05.59-1.58.49-1.24,1-2.49,1.46-3.74.74-1.83.74-1.83,2.48-1.83h16.74a8.77,8.77,0,0,0,2.4,0,.65.65,0,0,1,.34,0c.57.2,1.18.65,1.71.57a8.82,8.82,0,0,1,1.87-.34c.74,0,.84.13,1.13.91.46,1.25.93,3.31,1.41,4.56.21.56.43,1.11.64,1.67l0,.06.28.71.61,1.54a5.39,5.39,0,0,1,1.83-.16c1.48-.13,3,0,4.43,0,3.39,0,6.79-.29,10.18.18a.75.75,0,0,0,.6-.15,1.66,1.66,0,0,0,.36-.73,2.39,2.39,0,0,0,.08-.52h0Zm-35.1-37.52c.43-1.12.89-2.22,1.36-3.32.07-.19.27-.32.41-.47a4.52,4.52,0,0,1,.25.49c1.07,2.91,2.19,5.8,3.21,8.74.63,1.82,1.32,3.64,2.05,5.43a4.52,4.52,0,0,1,.23.71s0,0,0,0l.64,1.68a.69.69,0,0,1,0,.13c.33.91.68,1.82,1,2.72-3.76,0-7.52,0-11.28,0-1.44,0-2.88,0-4.32,0,.17-.47.34-.94.52-1.41l1.4-3.43a1.15,1.15,0,0,1,.06-.21c1-2.36,2-4.74,3-7.12C164.76,24.22,165.18,22.87,165.68,21.55Z"/><path class="cls-1" d="M41.13,53.81c-.18-1.83,0-3.68-.06-5.53-.15-3.09,0-6.19,0-9.29,0-2.66.2-5.32,0-8-.19-2.83,0-5.69,0-8.53-.07-6.37.09-12.73.15-19.1,0-.23,0-.46,0-.7s0-.26,0-.34l.55-1,0-.05c-.59-.49-1.38-.51-2-.85a1.48,1.48,0,0,0-1.36,0A1.35,1.35,0,0,1,38,.65c-.74,0-1.47.06-2.21.16-1.19.16-2.4.14-3.6.21-.13,0-.34.07-.35.12a.64.64,0,0,1-.06.22h0l-.09.71h0s.07.15.08.22c0,1,.11,1.94.12,2.91,0,3.42-.2,6.85-.06,10.28s-.24,7,0,10.42c0,.54-.07,1.07,0,1.61.09,2.83-.21,5.67,0,8.5.18,2.39-.24,4.8,0,7.19a15,15,0,0,1,0,2c0,.11,0,.2,0,.27h0v1.07L31,58.63l.7.32h0l.12,1a.23.23,0,0,0,0,.11c0,.08.12.18.49.13h0c.61-.09,5.26.33,5.26.33l3-.39.71-.28a11.76,11.76,0,0,0,0-2.22C41.07,56.4,41.26,55.1,41.13,53.81Z"/><path class="cls-1" d="M26.41.82a3.06,3.06,0,0,1-2.13,0c-.11,0-.27,0-.39.1-.5.24-1-.13-1.49,0-.12,0-.27-.06-.4-.07a4.34,4.34,0,0,0-1.57,0,1.84,1.84,0,0,1-.87.22c-.49-.07-1,0-1.48-.05C18,1.45,18,1.85,18,2c-.06.75-.13,1.5-.2,2.25a16.13,16.13,0,0,1-.23,2.42c-.15.6,0,1.22-.19,1.77A23.51,23.51,0,0,0,17,10.74c-.18.81-.13,1.67-.23,2.49-.16,1.24-.43,2.47-.54,3.71-.09,1.08-.29,2.14-.37,3.21-.11,1.61-.41,3.18-.57,4.76-.11,1.1-.22,2.19-.39,3.27s-.27,2.11-.38,3.17c-.14,1.44-.26,2.88-.39,4.31-.06.63-.12,1.26-.19,1.89a.84.84,0,0,1-.11.3c0,.06-.12.09-.18.13s0-.1-.05-.15c0-.6-.1-1.2-.16-1.79s-.1-1.14-.18-1.7c-.14-1.09-.32-2.18-.45-3.28-.08-.66-.08-1.33-.17-2-.14-1.07-.4-2.12-.46-3.2-.07-1.39-.32-2.75-.49-4.12-.16-1.22-.22-2.45-.33-3.67,0-.58-.09-1.17-.17-1.75-.09-.75-.23-1.49-.32-2.23a17.47,17.47,0,0,0-.18-1.94c-.26-1.27-.23-2.57-.47-3.84-.12-.67-.06-1.38-.18-2.05A18.51,18.51,0,0,1,9.73,2.7c0-.37,0-.74,0-1.11,0-.66-.07-.73-.68-.74L3.87.8c-.59,0-1.18,0-1.77,0h0L0,.81H0a5.21,5.21,0,0,1,.08.55c.08.75.12,1.5.19,2.26a9.45,9.45,0,0,0,.18,1.5A8.84,8.84,0,0,1,.79,7.48,5.91,5.91,0,0,1,1,9.16c.14,1,.37,2.06.5,3.09s.24,2.35.36,3.52c0,.56.08,1.12.17,1.67a34.52,34.52,0,0,1,.52,3.79,6.64,6.64,0,0,0,.18,1.55,28,28,0,0,1,.48,3.14c.18,1.08.22,2.18.36,3.27s.34,2.19.5,3.28c.12.9.22,1.81.34,2.71.16,1.27.34,2.53.49,3.79.13,1.1.23,2.2.34,3.3a13.3,13.3,0,0,0,.17,1.43,12.24,12.24,0,0,1,.31,2h0L6,48.11H6c.09.5.18,1,.23,1.5.13,1.24.22,2.47.33,3.7.05.52.1,1,.17,1.58.09.7.24,1.4.31,2.11s.1,1.74.18,2.6a.76.76,0,0,0,.48.77,3.93,3.93,0,0,0,1.27.17c1-.07,2,0,3,0a5.44,5.44,0,0,0,.57,0c.58-.1,1.15-.2,1.73-.32,1.23-.24,2.41.44,3.64.19.36.44.84-.2,1.21.11.13-.11.22-.14.27-.13h0l.34-.11.1-.16.35-.6a.86.86,0,0,1,0-.33c.08-.69.15-1.39.2-2.08.08-1,.14-2.09.21-3.13a1.09,1.09,0,0,1,0-.18,12.27,12.27,0,0,0,.38-2.63,18,18,0,0,1,.2-2.2,22.45,22.45,0,0,0,.38-3.18,20.89,20.89,0,0,1,.21-2.21c.16-1.19.44-2.37.53-3.57s.23-2.5.41-3.75.33-2.33.39-3.5.27-2.41.39-3.61.27-2.36.4-3.54.24-2.18.41-3.28.33-2.43.4-3.65a35.84,35.84,0,0,1,.41-3.59c.2-1.25.33-2.52.41-3.78s.3-2.23.39-3.35a24.71,24.71,0,0,1,.78-3.75.64.64,0,0,0,0-.36c-.06-.18-.28.37-.29,0,0-.15.11-.31.17-.48s.18-.54.26-.81A5.29,5.29,0,0,0,27,1.41C27.07.94,26.83.7,26.41.82Z"/><path class="cls-1" d="M101.09,55.1c-.15-1.28-.24-2.55-.36-3.83-.06-.64-.1-1.28-.18-1.91s-.25-1.47-.34-2.21a16.08,16.08,0,0,0-.2-2.09c-.31-1.2-.25-2.45-.48-3.67a22.93,22.93,0,0,1-.2-2.63,8.19,8.19,0,0,0-.2-1.73,16.49,16.49,0,0,1-.31-2.3c-.13-.86-.1-1.76-.2-2.63-.14-1.23-.4-2.44-.5-3.67-.07-1-.22-2-.35-3-.18-1.42-.25-2.85-.37-4.28a9.42,9.42,0,0,0-.2-2c-.21-.73-.16-1.48-.3-2.21s-.05-1.72-.23-2.54c-.13-.59,0-1.2-.17-1.73-.26-.79-.1-1.6-.29-2.4S96.15,8.43,96,7.55c-.13-.65,0-1.29-.15-1.92A21.27,21.27,0,0,1,95.48,2c0-.3,0-.55.36-.7s.35-.38,0-.53c-.15-.06-.31-.11-.45-.18A.29.29,0,0,1,95.2.41c0-.38-.2-.52-.37-.32a1.94,1.94,0,0,1-1.75.48,39.83,39.83,0,0,1-5-.15A11.63,11.63,0,0,0,86,.56,10.69,10.69,0,0,0,84.21.42c-1,.19-2.74.17-2.39.79a.3.3,0,0,1,0,.26c-.3.46-.11,1-.17,1.47s-.11.79-.17,1.19a10.45,10.45,0,0,0-.17,1.1,6.15,6.15,0,0,1,0,1.66,5.85,5.85,0,0,0-.17,1.91,1.2,1.2,0,0,1,0,.27c-.44,1.16-.26,2.41-.49,3.61a21.25,21.25,0,0,0-.2,3,1.42,1.42,0,0,1,0,.36,5.8,5.8,0,0,0-.35,2.3c0,.85-.1,1.7-.17,2.54a11.13,11.13,0,0,1-.19,1.64,14.93,14.93,0,0,0-.33,2.39,21.22,21.22,0,0,1-.21,2.54c-.11.53,0,1.06-.16,1.55-.31,1.3-.3,2.64-.48,3.95-.14,1-.23,2-.36,2.92-.18,1.33-.26,2.67-.37,4-.06.75-.09,1.52-.18,2.27-.15,1.26-.36,2.5-.51,3.76,0,.32,0,.46-.14.53l-.1.47c0,.35,0,.71,0,1.06,0,.18,0,.36,0,.54a.82.82,0,0,1,0,.27c0,.34-.1.68-.16,1s-.14.67-.17,1c-.07.87-.11,1.75-.18,2.63a6.35,6.35,0,0,1-.19,1.46,15.58,15.58,0,0,0-.32,2,12.32,12.32,0,0,1-.16,1.56,2.39,2.39,0,0,0,.06,1.21c0,.13,0,.22.06.29h0a2.69,2.69,0,0,0,.2.57l.84-.13h8.64V57.69c0-1,.1-2,.14-3.07,0-.38.18-.53.53-.53h5.42c.35,0,.52.14.54.52,0,1.18.11,2.36.17,3.54,0,.18-.07.45,0,.53a.35.35,0,0,1,0,.56c-.47.35-.15.56.09.79a1.24,1.24,0,0,0,1,.4c.85-.07,1.7-.18,2.55-.17,1.52,0,3,.12,4.56.16.41,0,.81,0,1.21-.05l-.1-1.7C101.46,57.48,101.23,56.29,101.09,55.1ZM90.94,46.66c-.39,0-.85.37-1.19-.15,0,0-.18,0-.26,0-.89.38-1.82.09-2.72.18-.4,0-.67-.17-.55-.56.34-1.17,0-2.39.31-3.57a5.48,5.48,0,0,0,0-1.62l0-.25.19-2.21h0c0-1,0-2,.18-3,.09-.74,0-1.48.16-2.19.2-1,0-2,.18-3s0-1.89.16-2.82c.18-1.54.23-3.1.38-4.64.1-1,0-2,.15-2.9.24-1.31,0-2.67.49-3.94a3.35,3.35,0,0,0,0-.9c0-.91.16-1.81.16-2.72,0-.59,0-1.17,0-1.75a.63.63,0,0,1,.08-.23l.09.23a3.66,3.66,0,0,1,.17.65c.07,1.32,0,2.66.19,4s.24,2.91.38,4.37c.07.82.08,1.64.14,2.45.1,1.49.15,3,.37,4.46.12.73.1,1.45.15,2.18.11,1.52.15,3.05.38,4.54.12.77.08,1.53.15,2.28,0,.55.12,1.1.17,1.64a4,4,0,0,0,.16,1.65c.06.12,0,.3,0,.45.21.11,0,1.51,0,1.81,0,.8.09,1.59.16,2.38,0,.34.11.67.17,1a5.38,5.38,0,0,0,.15,1.38C91.8,46.43,91.57,46.71,90.94,46.66Z"/><path class="cls-1" d="M250.69,55.1c-.15-1.28-.24-2.55-.36-3.83-.06-.64-.09-1.28-.18-1.91s-.25-1.47-.34-2.21a16.08,16.08,0,0,0-.2-2.09c-.3-1.2-.25-2.45-.48-3.67a22.93,22.93,0,0,1-.2-2.63,8.19,8.19,0,0,0-.19-1.73,15.12,15.12,0,0,1-.31-2.3c-.14-.86-.1-1.76-.21-2.63-.14-1.23-.4-2.44-.49-3.67-.08-1-.23-2-.36-3-.18-1.42-.24-2.85-.36-4.28a10.94,10.94,0,0,0-.2-2,21,21,0,0,1-.31-2.21c-.15-.83,0-1.72-.22-2.54-.13-.59,0-1.2-.18-1.73-.26-.79-.1-1.6-.29-2.4s-.05-1.83-.23-2.71c-.14-.65-.06-1.29-.16-1.92A22.32,22.32,0,0,1,245.08,2c0-.3,0-.55.36-.7s.35-.38,0-.53c-.15-.06-.3-.11-.45-.18a.29.29,0,0,1-.15-.16c0-.38-.19-.52-.37-.32a1.93,1.93,0,0,1-1.74.48,39.93,39.93,0,0,1-5-.15,11.63,11.63,0,0,0-2.11.14,10.69,10.69,0,0,0-1.76-.14c-1,.19-2.74.17-2.39.79a.3.3,0,0,1,0,.26c-.3.46-.11,1-.17,1.47s-.11.79-.17,1.19-.14.73-.17,1.1a6.15,6.15,0,0,1,0,1.66,5.85,5.85,0,0,0-.17,1.91.81.81,0,0,1,0,.27c-.44,1.16-.26,2.41-.49,3.61a22.87,22.87,0,0,0-.2,3,1.42,1.42,0,0,1,0,.36,6,6,0,0,0-.35,2.3c0,.85-.1,1.7-.17,2.54a9.92,9.92,0,0,1-.19,1.64A14.93,14.93,0,0,0,229,24.9a21.22,21.22,0,0,1-.21,2.54c-.1.53,0,1.06-.16,1.55-.31,1.3-.3,2.64-.48,3.95-.14,1-.23,2-.36,2.92-.18,1.33-.25,2.67-.37,4-.06.75-.09,1.52-.18,2.27-.15,1.26-.36,2.5-.51,3.76,0,.32-.05.46-.14.53l-.09.47,0,1.06c0,.18,0,.36,0,.54a2.44,2.44,0,0,1,0,.27c-.05.34-.11.68-.17,1s-.14.67-.17,1c-.07.87-.11,1.75-.18,2.63a5.84,5.84,0,0,1-.19,1.46,17.49,17.49,0,0,0-.32,2,10.72,10.72,0,0,1-.16,1.56,2.52,2.52,0,0,0,.07,1.21c0,.13,0,.22,0,.29h0a2.69,2.69,0,0,0,.2.57l.84-.13h8.64V57.69c.05-1,.11-2,.14-3.07,0-.38.18-.53.53-.53h5.43c.35,0,.52.14.53.52.05,1.18.11,2.36.17,3.54,0,.18-.07.45,0,.53a.35.35,0,0,1,0,.56c-.47.35-.15.56.09.79a1.24,1.24,0,0,0,1,.4c.85-.07,1.7-.18,2.55-.17,1.52,0,3,.12,4.57.16.4,0,.8,0,1.21-.05l-.1-1.7C251.06,57.48,250.83,56.29,250.69,55.1Zm-10.15-8.44c-.39,0-.85.37-1.19-.15,0,0-.18,0-.25,0-.89.38-1.82.09-2.73.18-.4,0-.67-.17-.55-.56.34-1.17,0-2.39.31-3.57a5.48,5.48,0,0,0,0-1.62l0-.25.2-2.21h0a28.06,28.06,0,0,1,.17-3c.1-.74,0-1.48.16-2.19.2-1,0-2,.19-3s0-1.89.15-2.82c.18-1.54.23-3.1.38-4.64.1-1,0-2,.16-2.9.24-1.31,0-2.67.49-3.94a3.37,3.37,0,0,0,0-.9c0-.91.16-1.81.16-2.72,0-.59,0-1.17,0-1.75a.63.63,0,0,1,.08-.23,1.57,1.57,0,0,1,.09.23,3,3,0,0,1,.17.65c.07,1.32.06,2.66.2,4s.24,2.91.37,4.37c.08.82.08,1.64.14,2.45.1,1.49.15,3,.38,4.46.11.73.09,1.45.14,2.18.11,1.52.15,3.05.39,4.54.12.77.07,1.53.14,2.28,0,.55.12,1.1.17,1.64a4.19,4.19,0,0,0,.17,1.65c.06.12,0,.3,0,.45.2.11,0,1.51,0,1.81,0,.8.1,1.59.17,2.38a8.87,8.87,0,0,0,.17,1,4.62,4.62,0,0,0,.15,1.38C241.4,46.43,241.17,46.71,240.54,46.66Z"/><path class="cls-1" d="M130.65,56.64c0-1.11,0-2.22,0-3.33a5.75,5.75,0,0,1,.15-2.18.37.37,0,0,0,0-.31H129.6c-.41-.19-.78.12-1.18,0s-1.15.17-1.69-.17a29.85,29.85,0,0,1-4.82.16,7.92,7.92,0,0,0,1.46,0,3.65,3.65,0,0,0-2.31,0,2,2,0,0,1-.67-.06,6.74,6.74,0,0,0-1-.08c-.24,0-.48.15-.72.14-.65,0-1.3-.11-1.94-.18a.29.29,0,0,1-.2-.19,13,13,0,0,1-.17-1.64c0-.55,0-1.1,0-1.65a45.55,45.55,0,0,1,.15-4.81,27.7,27.7,0,0,0,0-3.41c0-5.4,0-10.79,0-16.18q0-4.82,0-9.62c0-.4.26-.86.13-1.17a3.29,3.29,0,0,1-.12-1.38c0-.6.15-1.21.15-1.81,0-2.73,0-5.46,0-8.18,0-.2,0-.41,0-.61l-.31.42a.29.29,0,0,1-.14.08,6.61,6.61,0,0,1-1.07.17c-.38,0-.8.16-1.15-.16a5.32,5.32,0,0,1-3.23-.1s-.09,0-.13,0a22.32,22.32,0,0,1-2.3.13c-1,0-1.34.21-1.25,1.33s.07,2.06.2,3.07c0,.43-.33.81-.07,1.22-.42.74,0,1.51-.08,2.28a20.42,20.42,0,0,0,0,3.5c0,.25.24.6.14.72-.26.34-.14.69-.14,1q0,16.27,0,32.54v1.64a7.25,7.25,0,0,0,0,2.37c0,.08-.07.21-.09.31a1.15,1.15,0,0,0-.06.51,3.44,3.44,0,0,1,0,2c-.06.22.1.5.11.75a10.85,10.85,0,0,1,0,1.14c0,.22-.14.44-.15.66a5.23,5.23,0,0,0,.07,1.86c.23.61,0,1.15,0,1.72a1.25,1.25,0,0,1-.07.53h0l.16.73,0,.14h2.37c1,0,2,0,3,0,.7,0,1.41-.15,2.11-.15s1.47.16,2.21.16h13.07a2.25,2.25,0,0,0,.52,0c.15,0,.38-.15.4-.26a3.8,3.8,0,0,0,.16-1.44A10.24,10.24,0,0,1,130.65,56.64Z"/><path class="cls-1" d="M222.87,10.77c.29.27.44,0,.55-.15a1.4,1.4,0,0,0,.16-1.15,3.92,3.92,0,0,1-.28-1c-.07-1.23-.1-2.47-.13-3.7a17.81,17.81,0,0,0,0-1.79c-.1-.69-.54-1.35,0-2.06.07-.07-.08-.37-.18-.52s-.27.06-.41.11l-.46.17a7.23,7.23,0,0,1-2.58.16c-.65,0-1.31-.14-2-.15-2.38,0-4.76,0-7.13-.17-1.51-.11-3,0-4.55,0-2.31,0-4.62-.12-6.93-.16a.85.85,0,0,1-.23,0c-.64,0-.95.23-1.08.56a1.79,1.79,0,0,1,.17.78c-.06,1.89-.06,3.78-.09,5.66a4.36,4.36,0,0,1-.05.52s-1,1-.69,1.11l.67.34.11.92a.69.69,0,0,0,.35.18c.85.08,1.7.15,2.55.19.61,0,1.22,0,1.92,0h2.63c.62,0,.71.07.68.7,0,1.23-.07,2.46-.17,3.7-.23,2.72.51,5.46.15,8.19-.05,11.23-1,22.47-.71,33.7a5,5,0,0,0,.13,1.73.79.79,0,0,1,.05.43l.21,1.14a.46.46,0,0,1,.26.07c.28.18.6.52.9,0,.12.08.24.16.37.23s.28.16.3.14c.43-.61,1-.52,1.51-.27a.4.4,0,0,0,.34,0H210a.68.68,0,0,0,.4,0h.95a.52.52,0,0,0,.47,0h2a.69.69,0,0,0-.07-1.13c-.05,0,0-.17,0-.25,0-1.33.37-2.65.35-4-.07-4.14.16-8.27,0-12.42-.17-4.57.21-9.17,0-13.76,0-.6,0-1.21,0-1.82a33.28,33.28,0,0,1,.21-5,8.64,8.64,0,0,0,0-1.44l0-1.43c0-.45,0-.9,0-1.35s-.44-.87-.4-1.31.12-.89.13-1.34a27.73,27.73,0,0,1,.22-4c.07-.4.17-.62.57-.58a7.15,7.15,0,0,0,.91.14c.32,0,.64-.14,1-.13.77,0,1.53.14,2.29.16,1.08,0,2.16,0,3.24,0C222.49,10.71,222.75,10.66,222.87,10.77Z"/><path class="cls-1" d="M76.94,59a4.92,4.92,0,0,1-1.86-1.79,5.62,5.62,0,0,1-1.36-2.44c-.12-.86-.1-1.74-.15-2.6-.06-1.08.07-2.15-.09-3.24s0-2.21-.15-3.32a15.93,15.93,0,0,0-.14-1.8,23.73,23.73,0,0,0-.82-3.48,6.93,6.93,0,0,0-2.12-3.17,10.69,10.69,0,0,1-1-.71,16.51,16.51,0,0,0-4-2.44,4.91,4.91,0,0,0-1-.3c-.42-.12-.83-.25-1.26-.35s-.3-.41-.16-.6a12.7,12.7,0,0,1,2.53-1.86,9.82,9.82,0,0,0,2.2-2.07c.61-.8,1.22-1.58,1.81-2.38a15.84,15.84,0,0,0,1-1.55c.28-.51.46-1.06.72-1.58.58-1.19,1.2-2.37,1.77-3.56a4.81,4.81,0,0,0,.6-1.63c.08-1,.6-1.94.43-3a.49.49,0,0,1,0-.27,2.49,2.49,0,0,0,0-1.82A3.64,3.64,0,0,1,74,12a4.48,4.48,0,0,0,0-1,12,12,0,0,0-.88-2.82,7,7,0,0,0-1.32-2.38,18.57,18.57,0,0,1-1.57-1.63,7.13,7.13,0,0,0-2.81-2.24,3.44,3.44,0,0,1-.62-.4A3.22,3.22,0,0,0,64,1.1a.37.37,0,0,0,.22.13,12.93,12.93,0,0,1,1.41.2c.43.11.59.67,1.08.72l-.06.16c-.23-.12-.57.24-.78-.25-.09-.21-.65-.2-1-.29a4.29,4.29,0,0,1-1.53-.47.61.61,0,0,0-.57-.17,7.76,7.76,0,0,1-2.1,0C59,.69,56.47.48,55.36.91a12.21,12.21,0,0,1-3.43.49c-.42,0,.21-.26-.11-.09-.56.28-1-.16-1.44-.11s-1,.32-1.32-.18L50.49.88c.29,0,.58,0,.87,0s-.5,0-.18,0a.7.7,0,0,0,.23-.08A1,1,0,0,0,51.2.7c-.59,0,0,0-.63-.14a6.41,6.41,0,0,0-1.82.19,5.15,5.15,0,0,1-.55,0c0,.41-.29.25-.49.29s-.59.13-.88.21h0l.09.5a2.27,2.27,0,0,1,.35.5.69.69,0,0,1,0,.51,1,1,0,0,0,0,1.05.9.9,0,0,1,0,.61,10.47,10.47,0,0,0-.39,3.34c0,1.28.08,2.57.1,3.85,0,.84,0,1.67,0,2.5,0,.4.07.8.1,1.19a9.5,9.5,0,0,1-.1,2.25,23,23,0,0,0,0,3.52c0,.2.11.43,0,.59a3.18,3.18,0,0,0,0,1.65c.13,1.27.12,2.56.14,3.85.06,3.37-.24,6.74,0,10.11.16,2.17.08,4.36.1,6.53,0,.53,0,1.06,0,1.59l0,1.87v.06c0,2.15-.11,4.3,0,6.45.09,1.3,0,2.62,0,3.93a4.08,4.08,0,0,1-.29,1.76c0,.09-.09.24,0,.3A.92.92,0,0,1,47,60l.36.53c1.19-.1,2.4,0,3.62-.12a4.68,4.68,0,0,1,1.45-.05l1.36.11h0l1.36-.1c0-.06-.14-.07-.21-.1a.9.9,0,0,1,.23-.08c.21-.05.42-.08.63-.11a3.47,3.47,0,0,1-.23-.61,2.84,2.84,0,0,1-.08-.77c0-3.84.1-7.68.18-11.52,0-1.17.15-2.33.21-3.5,0-.23.07-.31.3-.29a5.92,5.92,0,0,0,1.71-.31,6,6,0,0,1,2.36-.19,13.23,13.23,0,0,1,3.5,1,3,3,0,0,1,1.53,2h0a10.86,10.86,0,0,1,.33,1.63h0a1.15,1.15,0,0,1,0,.19c0,1.67.09,3.35.1,5,0,1.52,0,3-.09,4.55a9.81,9.81,0,0,0,0,2.36c.06.41.52.94.89.86a9.55,9.55,0,0,1,1.68-.08c1.59-.09,3.18-.32,4.78-.26a7.6,7.6,0,0,1,.8.17c.44.07.94.29,1.31.14a1.85,1.85,0,0,1,1.38-.15.89.89,0,0,0,1-.43C77.67,59.48,77.21,59.16,76.94,59ZM55.72,12.69a1.8,1.8,0,0,1,.06.32l.12,3.68a2.1,2.1,0,0,0,.06.24,1.15,1.15,0,0,0,.12-.25,2.78,2.78,0,0,0,.18-.73c0-1.61-.08-3.22-.09-4.83,0-1.1.24-1.27,1.29-1a13.33,13.33,0,0,0,2.28,0c.34-.56.78-.15,1.12-.12a9.21,9.21,0,0,1,3.3,1.07A2.2,2.2,0,0,1,65,12a4.48,4.48,0,0,1,.07,4.24c-.36.77-.67,1.57-1,2.34a19.1,19.1,0,0,1-1,1.92c-.48.8-1,1.53-1.55,2.31-.77,1.2-2.64,2.35-3.63,3.34-.44.44-1.46.94-1.83,1.42a.33.33,0,0,1-.2.12s-.11-.09-.15-.16,0-.11,0-.17c0-2.92,0-5.84,0-8.76a3.45,3.45,0,0,1,.18-.82c0-.11-.14-.12-.14-.15A28.76,28.76,0,0,1,55.61,13,1,1,0,0,1,55.72,12.69Z"/></g></g></svg>